<svg xmlns="http://www.w3.org/2000/svg" viewBox="0 0 46.9 24.5"><path fill="#b1e3fa" d="M38.3 13.9v-1h8.6v2h-8.6v-1zm0-3.2v-1h8.6v2h-8.6v-1zm0-3.2v-1h8.6v2h-8.6v-1zm0-3.3v-1h8.6v2.1h-8.6V4.2zm0-3.1V0h8.6v2.2h-8.6V1.1z"/><path fill="#f7bacf" d="M19.1 13.9v-1h8.6v2h-8.6v-1zm0-3.2v-1h8.6v2h-8.6v-1zm0-3.2v-1h8.6v2h-8.6v-1zm0-3.3v-1h8.6v2.1h-8.6V4.2z"/><path fill="#e7ee9f" d="M28.7 13.9v-1h8.6v2h-8.6v-1zm0-3.2v-1h8.6v2h-8.6v-1z"/><path fill="#feea3a" d="M9.6 23.5v-1H18v2H9.6v-1zm0-3.3v-1H18v2H9.6v-1zm0-3.2v-1H18v2H9.6v-1z"/><path fill="#fe9d7f" d="M0 13.9v-1h8.4v2H0v-1zm0-3.2v-1h8.4v2H0v-1z"/><path fill="#4ec2f6" d="M38.4 23.5v-1h8.4v2h-8.4v-1zm0-3.3v-1h8.4v2h-8.4v-1zm0-3.2v-1h8.4v2h-8.4v-1z"/><path fill="#ccdb38" d="M28.8 23.5v-1h8.4v2h-8.4v-1zm0-3.3v-1h8.4v2h-8.4v-1zm0-3.2v-1h8.4v2h-8.4v-1z"/><path fill="#fe3f80" d="M19.2 23.5v-1h8.4v2h-8.4v-1zm0-3.3v-1h8.4v2h-8.4v-1zm0-3.2v-1h8.4v2h-8.4v-1z"/><path fill="#fe3d02" d="M0 23.5v-1h8.4v2H0v-1zm0-3.3v-1h8.4v2H0v-1zM0 17v-1h8.4v2H0v-1z"/></svg>